<svg xmlns="http://www.w3.org/2000/svg" viewBox="0 0 128 128">
  <path fill="#00" d="M99.008 61.885l-4.422-3.866-9.922-8.677-2.958-2.588-1.479-1.294c.296.199.603.403.916.612l-17.57-15.351-2.958-2.583-34.193 20.312 30.727 26.837 8.423 7.353 2.958 2.583 1.479 1.291c-.298-.196-.61-.398-.923-.608l-19.313-16.858-2.958-2.583-15.359 9.127 4.422 3.866 9.922 8.677 2.958 2.588 1.479 1.294c-.296-.199-.603-.403-.916-.612l19.313 16.858 2.958 2.583 15.359-9.127-30.727-26.837-8.423-7.353-2.958-2.583-1.479-1.294c.298.196.61.398.923.608l17.57 15.351 2.958 2.583 34.193-20.312z"/>
  <path fill="#009F4F" d="M64 64h4v-4h4v4h4v4h-4v4h-4v-4h-4z"/>
  <path fill="#333" d="M74.737 65.737l-4-4v4l4 4-4 4v-4l-4 4-4-4v4l4-4v-4l4 4z"/>
  <path fill="#333" d="M57.263 53.263l4 4v-4l-4-4v4l-4-4-4 4v-4l4 4v4l-4-4-4 4v4l4-4v4l4-4v-4l4 4z"/>
  <path transform="rotate(45 32 96)" fill="#333" d="M24 88h16v16h-16z"/>
  <path transform="rotate(-45 96 32)" fill="#333" d="M88 24h16v16h-16z"/>
</svg>