<svg xmlns="http://www.w3.org/2000/svg" viewBox="0 0 128 128">
  <path fill="#B7410E" d="M62.472 4.813c3.599 0 7.119.524 10.567 1.511 17.412 4.991 31.549 17.558 39.902 35.431 2.117 4.528 3.631 9.314 4.482 14.229.852 4.926 1.012 9.999.476 14.988-.536 4.989-1.791 9.867-3.749 14.553-3.913 9.358-10.759 17.319-19.225 22.421-8.467 5.102-18.652 7.853-29.209 7.853H25.989c-10.558 0-20.742-2.751-29.209-7.853-8.467-5.102-15.312-13.063-19.225-22.421-3.914-9.357-5.659-19.526-5.123-28.515.536-8.989 2.761-17.867 6.337-26.355 8.227-19.561 22.679-35.059 42.303-43.441 9.814-4.196 20.562-6.462 31.578-6.462h.005zm-37.91 16.196c-3.631 5.94-5.993 12.725-6.885 19.715-.892 6.99-.484 14.195 1.204 21.107 3.381 13.846 11.521 25.606 22.955 31.203 11.433 5.597 25.15 5.741 36.618.405 11.467-5.337 20.089-16.402 23.56-30.152 3.471-13.749 2.571-28.794-2.561-42.102-5.133-13.308-14.771-24.376-27.188-30.11-12.416-5.734-27.178-5.934-39.644-.578-5.581 2.397-10.767 5.653-15.339 9.512h.28z"/>
  <path fill="#fff" d="M62.472 8.812c3.599 0 7.119.524 10.567 1.511 17.412 4.991 31.549 17.558 39.902 35.431 2.117 4.528 3.631 9.314 4.482 14.229.852 4.926 1.012 9.999.476 14.988-.536 4.989-1.791 9.867-3.749 14.553-3.913 9.358-10.759 17.319-19.225 22.421-8.467 5.102-18.652 7.853-29.209 7.853H25.989c-10.558 0-20.742-2.751-29.209-7.853-8.467-5.102-15.312-13.063-19.225-22.421-3.914-9.357-5.659-19.526-5.123-28.515.536-8.989 2.761-17.867 6.337-26.355 8.227-19.561 22.679-35.059 42.303-43.441 9.814-4.196 20.562-6.462 31.578-6.462h.005z"/>
  <path fill="#B7410E" d="M100.5 26.5c.5 2.5-1 5.5-3 6.5-2 1-4.5 0-6-2.5-1.5-2.5-.5-5.5 1.5-6.5 2-1 5-.5 7.5 2.5zm-6 8.5c1.5 2.5.5 6-2 7-2.5 1-5.5-.5-7-3-1.5-2.5-.5-6 2-7 2.5-1 5.5.5 7 3zM52 36.5c.5 2.5-1 5.5-3 6.5-2 1-4.5 0-6-2.5-1.5-2.5-.5-5.5 1.5-6.5 2-1 5-.5 7.5 2.5zm4.5 12c1.5 2.5.5 6-2 7-2.5 1-5.5-.5-7-3-1.5-2.5-.5-6 2-7 2.5-1 5.5.5 7 3z"/>
  <circle cx="64" cy="64" r="16" fill="#B7410E"/>
  <circle cx="64" cy="64" r="10" fill="#fff"/>
</svg>